<svg width="343" height="78" viewBox="0 0 343 78" fill="none" xmlns="http://www.w3.org/2000/svg">
<path d="M19.58 15.388C22.66 15.388 25.32 15.948 27.56 17.068C29.8 18.188 31.592 19.756 32.936 21.772H33.272V0.183997H46.628V61H33.86V55.12H33.524C32.18 57.528 30.304 59.292 27.896 60.412C25.544 61.532 22.884 62.092 19.916 62.092C16.22 62.092 12.916 61.14 10.004 59.236C7.092 57.332 4.796 54.616 3.116 51.088C1.492 47.56 0.68 43.444 0.68 38.74C0.68 34.036 1.492 29.92 3.116 26.392C4.796 22.864 7.064 20.148 9.92 18.244C12.776 16.34 15.996 15.388 19.58 15.388ZM24.116 52.096C27.196 52.096 29.604 50.976 31.34 48.736C33.076 46.496 33.944 43.164 33.944 38.74C33.944 34.372 33.076 31.068 31.34 28.828C29.604 26.588 27.196 25.468 24.116 25.468C21.036 25.468 18.6 26.588 16.808 28.828C15.072 31.068 14.204 34.372 14.204 38.74C14.204 43.164 15.072 46.496 16.808 48.736C18.6 50.976 21.036 52.096 24.116 52.096ZM94.317 47.644C93.701 49.996 92.525 52.264 90.789 54.448C89.053 56.632 86.589 58.452 83.397 59.908C80.261 61.364 76.425 62.092 71.889 62.092C67.185 62.092 63.097 61.168 59.625 59.32C56.209 57.416 53.577 54.728 51.729 51.256C49.881 47.728 48.957 43.584 48.957 38.824C48.957 31.544 50.973 25.832 55.005 21.688C59.093 17.488 64.721 15.388 71.889 15.388C78.889 15.388 84.461 17.432 88.605 21.52C92.749 25.552 94.821 31.32 94.821 38.824C94.821 40 94.793 40.868 94.737 41.428H62.565C62.621 44.956 63.489 47.784 65.169 49.912C66.849 51.984 69.089 53.02 71.889 53.02C74.521 53.02 76.537 52.404 77.937 51.172C79.337 49.94 80.233 48.456 80.625 46.72L94.317 47.644ZM71.889 24.208C69.145 24.208 66.961 25.076 65.337 26.812C63.713 28.492 62.817 30.676 62.649 33.364H81.129C80.961 30.676 80.065 28.492 78.441 26.812C76.817 25.076 74.633 24.208 71.889 24.208ZM124.468 30.004C124.076 28.044 123.152 26.532 121.696 25.468C120.296 24.404 118.56 23.872 116.488 23.872C114.528 23.872 112.932 24.292 111.7 25.132C110.524 25.916 109.936 27.036 109.936 28.492C109.936 29.836 110.524 30.816 111.7 31.432C112.876 32.048 114.752 32.58 117.328 33.028L121.948 33.7C125.196 34.26 127.968 34.988 130.264 35.884C132.56 36.78 134.436 38.18 135.892 40.084C137.348 41.932 138.076 44.452 138.076 47.644C138.076 52.46 136.116 56.072 132.196 58.48C128.332 60.888 123.208 62.092 116.824 62.092C110.888 62.092 105.96 60.86 102.04 58.396C98.1198 55.876 95.7958 52.404 95.0678 47.98L107.584 46.552C107.976 48.848 108.984 50.612 110.608 51.844C112.288 53.02 114.416 53.608 116.992 53.608C119.288 53.608 121.108 53.132 122.452 52.18C123.796 51.228 124.468 49.912 124.468 48.232C124.468 46.944 123.796 45.936 122.452 45.208C121.164 44.48 119.204 43.892 116.572 43.444L111.532 42.688C107.052 41.96 103.44 40.644 100.696 38.74C97.9518 36.78 96.5798 33.616 96.5798 29.248C96.5798 26.336 97.4758 23.844 99.2678 21.772C101.06 19.7 103.468 18.132 106.492 17.068C109.516 15.948 112.82 15.388 116.404 15.388C121.836 15.388 126.4 16.564 130.096 18.916C133.792 21.268 136.004 24.488 136.732 28.576L124.468 30.004ZM153.889 16.48V61H140.533V16.48H153.889ZM153.889 0.183997V10.6H140.533V0.183997H153.889ZM202.076 57.556C202.076 64.612 200.004 69.708 195.86 72.844C191.772 75.98 186.256 77.548 179.312 77.548C173.488 77.548 168.588 76.344 164.612 73.936C160.692 71.528 158.06 67.776 156.716 62.68L169.988 61.504C170.66 63.688 171.752 65.284 173.264 66.292C174.832 67.356 176.848 67.888 179.312 67.888C185.64 67.888 188.804 64.332 188.804 57.22V52.936H188.468C185.724 56.8 181.328 58.732 175.28 58.732C171.696 58.732 168.476 57.864 165.62 56.128C162.82 54.336 160.608 51.788 158.984 48.484C157.36 45.18 156.548 41.344 156.548 36.976C156.548 32.608 157.36 28.8 158.984 25.552C160.608 22.304 162.848 19.812 165.704 18.076C168.616 16.284 171.92 15.388 175.616 15.388C181.944 15.388 186.396 17.572 188.972 21.94H189.308V16.48H202.076V57.556ZM179.816 48.82C182.728 48.82 185.052 47.756 186.788 45.628C188.58 43.5 189.476 40.616 189.476 36.976C189.476 33.448 188.58 30.648 186.788 28.576C185.052 26.448 182.728 25.384 179.816 25.384C176.848 25.384 174.468 26.448 172.676 28.576C170.94 30.648 170.072 33.448 170.072 36.976C170.072 40.616 170.94 43.5 172.676 45.628C174.468 47.756 176.848 48.82 179.816 48.82ZM218.691 22.444C220.203 20.316 222.135 18.608 224.487 17.32C226.839 16.032 229.611 15.388 232.803 15.388C237.451 15.388 241.203 16.788 244.059 19.588C246.971 22.332 248.427 26.392 248.427 31.768V61H235.071V35.044C235.071 31.852 234.427 29.556 233.139 28.156C231.907 26.756 230.031 26.056 227.511 26.056C225.047 26.056 222.975 26.98 221.295 28.828C219.671 30.676 218.859 33.364 218.859 36.892V61H205.503V16.48H218.355V22.444H218.691ZM296.245 47.644C295.629 49.996 294.453 52.264 292.717 54.448C290.981 56.632 288.517 58.452 285.325 59.908C282.189 61.364 278.353 62.092 273.817 62.092C269.113 62.092 265.025 61.168 261.553 59.32C258.137 57.416 255.505 54.728 253.657 51.256C251.809 47.728 250.885 43.584 250.885 38.824C250.885 31.544 252.901 25.832 256.933 21.688C261.021 17.488 266.649 15.388 273.817 15.388C280.817 15.388 286.389 17.432 290.533 21.52C294.677 25.552 296.749 31.32 296.749 38.824C296.749 40 296.721 40.868 296.665 41.428H264.493C264.549 44.956 265.417 47.784 267.097 49.912C268.777 51.984 271.017 53.02 273.817 53.02C276.449 53.02 278.465 52.404 279.865 51.172C281.265 49.94 282.161 48.456 282.553 46.72L296.245 47.644ZM273.817 24.208C271.073 24.208 268.889 25.076 267.265 26.812C265.641 28.492 264.745 30.676 264.577 33.364H283.057C282.889 30.676 281.993 28.492 280.369 26.812C278.745 25.076 276.561 24.208 273.817 24.208ZM312.2 23.368H312.536C313.88 20.848 315.672 18.888 317.912 17.488C320.152 16.088 322.868 15.388 326.06 15.388C326.956 15.388 327.852 15.5 328.748 15.724V28.156C327.404 27.932 325.808 27.82 323.96 27.82C320.488 27.82 317.744 28.688 315.728 30.424C313.768 32.16 312.788 35.072 312.788 39.16V61H299.432V16.48H312.2V23.368ZM342.897 47.056V61H328.113V47.056H342.897Z" fill="#F1F1F1"/>
</svg>
