<svg width="391" height="77" viewBox="0 0 391 77" fill="none" xmlns="http://www.w3.org/2000/svg">
<path d="M19.58 15.388C22.66 15.388 25.32 15.948 27.56 17.068C29.8 18.188 31.592 19.756 32.936 21.772H33.272V0.183997H46.628V61H33.86V55.12H33.524C32.18 57.528 30.304 59.292 27.896 60.412C25.544 61.532 22.884 62.092 19.916 62.092C16.22 62.092 12.916 61.14 10.004 59.236C7.092 57.332 4.796 54.616 3.116 51.088C1.492 47.56 0.68 43.444 0.68 38.74C0.68 34.036 1.492 29.92 3.116 26.392C4.796 22.864 7.064 20.148 9.92 18.244C12.776 16.34 15.996 15.388 19.58 15.388ZM24.116 52.096C27.196 52.096 29.604 50.976 31.34 48.736C33.076 46.496 33.944 43.164 33.944 38.74C33.944 34.372 33.076 31.068 31.34 28.828C29.604 26.588 27.196 25.468 24.116 25.468C21.036 25.468 18.6 26.588 16.808 28.828C15.072 31.068 14.204 34.372 14.204 38.74C14.204 43.164 15.072 46.496 16.808 48.736C18.6 50.976 21.036 52.096 24.116 52.096ZM94.317 47.644C93.701 49.996 92.525 52.264 90.789 54.448C89.053 56.632 86.589 58.452 83.397 59.908C80.261 61.364 76.425 62.092 71.889 62.092C67.185 62.092 63.097 61.168 59.625 59.32C56.209 57.416 53.577 54.728 51.729 51.256C49.881 47.728 48.957 43.584 48.957 38.824C48.957 31.544 50.973 25.832 55.005 21.688C59.093 17.488 64.721 15.388 71.889 15.388C78.889 15.388 84.461 17.432 88.605 21.52C92.749 25.552 94.821 31.32 94.821 38.824C94.821 40 94.793 40.868 94.737 41.428H62.565C62.621 44.956 63.489 47.784 65.169 49.912C66.849 51.984 69.089 53.02 71.889 53.02C74.521 53.02 76.537 52.404 77.937 51.172C79.337 49.94 80.233 48.456 80.625 46.72L94.317 47.644ZM71.889 24.208C69.145 24.208 66.961 25.076 65.337 26.812C63.713 28.492 62.817 30.676 62.649 33.364H81.129C80.961 30.676 80.065 28.492 78.441 26.812C76.817 25.076 74.633 24.208 71.889 24.208ZM107.897 61L91.9368 16.48H106.301L115.877 46.468H116.213L125.705 16.48H139.901L123.773 61H107.897ZM182.258 47.644C181.642 49.996 180.466 52.264 178.73 54.448C176.994 56.632 174.53 58.452 171.338 59.908C168.202 61.364 164.366 62.092 159.83 62.092C155.126 62.092 151.038 61.168 147.566 59.32C144.15 57.416 141.518 54.728 139.67 51.256C137.822 47.728 136.898 43.584 136.898 38.824C136.898 31.544 138.914 25.832 142.946 21.688C147.034 17.488 152.662 15.388 159.83 15.388C166.83 15.388 172.402 17.432 176.546 21.52C180.69 25.552 182.762 31.32 182.762 38.824C182.762 40 182.734 40.868 182.678 41.428H150.506C150.562 44.956 151.43 47.784 153.11 49.912C154.79 51.984 157.03 53.02 159.83 53.02C162.462 53.02 164.478 52.404 165.878 51.172C167.278 49.94 168.174 48.456 168.566 46.72L182.258 47.644ZM159.83 24.208C157.086 24.208 154.902 25.076 153.278 26.812C151.654 28.492 150.758 30.676 150.59 33.364H169.07C168.902 30.676 168.006 28.492 166.382 26.812C164.758 25.076 162.574 24.208 159.83 24.208ZM198.885 0.183997V61H185.529V0.183997H198.885ZM224.812 15.388C229.628 15.388 233.772 16.34 237.244 18.244C240.772 20.148 243.46 22.864 245.308 26.392C247.156 29.864 248.08 33.98 248.08 38.74C248.08 45.964 246.008 51.676 241.864 55.876C237.72 60.02 232.036 62.092 224.812 62.092C217.476 62.092 211.736 60.02 207.592 55.876C203.504 51.732 201.46 46.02 201.46 38.74C201.46 31.516 203.504 25.832 207.592 21.688C211.736 17.488 217.476 15.388 224.812 15.388ZM224.812 52.264C227.836 52.264 230.188 51.144 231.868 48.904C233.604 46.664 234.472 43.276 234.472 38.74C234.472 34.26 233.604 30.9 231.868 28.66C230.188 26.364 227.836 25.216 224.812 25.216C221.732 25.216 219.324 26.364 217.588 28.66C215.852 30.9 214.984 34.26 214.984 38.74C214.984 43.276 215.852 46.664 217.588 48.904C219.324 51.144 221.732 52.264 224.812 52.264ZM277.793 62.092C271.689 62.092 267.237 59.964 264.437 55.708H264.101V76.456H250.745V16.48H263.597V22.36H263.933C266.509 17.712 271.017 15.388 277.457 15.388C281.153 15.388 284.457 16.34 287.369 18.244C290.337 20.148 292.633 22.864 294.257 26.392C295.937 29.864 296.777 33.952 296.777 38.656C296.777 43.36 295.937 47.504 294.257 51.088C292.633 54.616 290.365 57.332 287.453 59.236C284.597 61.14 281.377 62.092 277.793 62.092ZM273.257 25.468C270.233 25.468 267.825 26.588 266.033 28.828C264.297 31.068 263.429 34.372 263.429 38.74C263.429 43.164 264.297 46.496 266.033 48.736C267.825 50.976 270.233 52.096 273.257 52.096C276.393 52.096 278.829 50.976 280.565 48.736C282.301 46.496 283.169 43.164 283.169 38.74C283.169 34.372 282.273 31.068 280.481 28.828C278.745 26.588 276.337 25.468 273.257 25.468ZM343.702 47.644C343.086 49.996 341.91 52.264 340.174 54.448C338.438 56.632 335.974 58.452 332.782 59.908C329.646 61.364 325.81 62.092 321.274 62.092C316.57 62.092 312.482 61.168 309.01 59.32C305.594 57.416 302.962 54.728 301.114 51.256C299.266 47.728 298.342 43.584 298.342 38.824C298.342 31.544 300.358 25.832 304.39 21.688C308.478 17.488 314.106 15.388 321.274 15.388C328.274 15.388 333.846 17.432 337.99 21.52C342.134 25.552 344.206 31.32 344.206 38.824C344.206 40 344.178 40.868 344.122 41.428H311.95C312.006 44.956 312.874 47.784 314.554 49.912C316.234 51.984 318.474 53.02 321.274 53.02C323.906 53.02 325.922 52.404 327.322 51.172C328.722 49.94 329.618 48.456 330.01 46.72L343.702 47.644ZM321.274 24.208C318.53 24.208 316.346 25.076 314.722 26.812C313.098 28.492 312.202 30.676 312.034 33.364H330.514C330.346 30.676 329.45 28.492 327.826 26.812C326.202 25.076 324.018 24.208 321.274 24.208ZM359.657 23.368H359.993C361.337 20.848 363.129 18.888 365.369 17.488C367.609 16.088 370.325 15.388 373.517 15.388C374.413 15.388 375.309 15.5 376.205 15.724V28.156C374.861 27.932 373.265 27.82 371.417 27.82C367.945 27.82 365.201 28.688 363.185 30.424C361.225 32.16 360.245 35.072 360.245 39.16V61H346.889V16.48H359.657V23.368ZM390.354 47.056V61H375.57V47.056H390.354Z" fill="#F1F1F1"/>
</svg>
