<?xml version="1.0" standalone="no"?>
<!DOCTYPE svg PUBLIC "-//W3C//DTD SVG 20010904//EN"
 "http://www.w3.org/TR/2001/REC-SVG-20010904/DTD/svg10.dtd">
<svg version="1.0" xmlns="http://www.w3.org/2000/svg"
 width="320.000000pt" height="88.000000pt" viewBox="0 0 320.000000 88.000000"
 preserveAspectRatio="xMidYMid meet">
<metadata>
Created by potrace 1.16, written by Peter Selinger 2001-2019
</metadata>
<g transform="translate(0.000000,88.000000) scale(0.100000,-0.100000)"
fill="#000000" stroke="none">
<path d="M1270 592 l0 -257 153 -153 c84 -83 156 -152 160 -152 4 0 6 183 5
408 l-3 407 -67 3 -68 3 0 -317 0 -317 -25 23 -25 23 0 294 0 293 -65 0 -65 0
0 -258z"/>
<path d="M1620 438 l0 -413 160 160 160 160 -2 250 -3 250 -67 3 -68 3 0 -294
0 -294 -25 -23 -25 -23 0 316 0 317 -65 0 -65 0 0 -412z"/>
</g>
</svg>
