<svg width="512" height="512" viewBox="0 0 512 512" fill="none" xmlns="http://www.w3.org/2000/svg">
<path d="M296 56H248V40H296V56ZM232 40H216V56H232V40ZM184 428.688L203.312 448L184 467.312C180.976 470.336 176.96 472 172.688 472H168C159.176 472 152 464.824 152 456V440C152 431.176 159.176 424 168 424H172.688C176.96 424 180.976 425.664 184 428.688ZM180.688 448L172.688 440H168V456H172.688L180.688 448ZM280 440V456C280 464.824 272.824 472 264 472H248C239.176 472 232 464.824 232 456V440C232 431.176 239.176 424 248 424H264C272.824 424 280 431.176 280 440ZM264.008 456L264 440H248V456H264.008ZM360 440V456C360 464.824 352.824 472 344 472H339.312C335.04 472 331.024 470.336 328 467.312L308.688 448L328 428.688C331.024 425.664 335.04 424 339.312 424H344C352.824 424 360 431.176 360 440ZM344.008 456L344 440H339.312L331.312 448L339.312 456H344.008ZM128 328C88.304 328 56 295.696 56 256C56 216.304 88.304 184 128 184C167.696 184 200 216.304 200 256C200 295.696 167.696 328 128 328ZM128 312C158.88 312 184 286.88 184 256C184 225.12 158.88 200 128 200C97.12 200 72 225.12 72 256C72 286.88 97.12 312 128 312ZM128 296C105.944 296 88 278.056 88 256C88 233.944 105.944 216 128 216C150.056 216 168 233.944 168 256C168 278.056 150.056 296 128 296ZM128 280C141.232 280 152 269.232 152 256C152 242.768 141.232 232 128 232C114.768 232 104 242.768 104 256C104 269.232 114.768 280 128 280ZM504 264C504 316.936 460.936 360 408 360V464C408 486.056 390.056 504 368 504H144C121.944 504 104 486.056 104 464V376H97.784L92.08 353.584C89.528 352.632 86.968 351.568 84.432 350.384L64.512 362.224L21.776 319.488L33.616 299.568C32.44 297.032 31.368 294.48 30.416 291.92L8 286.216V225.776L30.416 220.072C31.368 217.52 32.432 214.96 33.616 212.424L21.776 192.512L64.512 149.776L84.432 161.616C86.968 160.44 89.52 159.368 92.08 158.416L97.784 136H104V48C104 25.944 121.944 8 144 8H368C390.056 8 408 25.944 408 48V168C460.936 168 504 211.064 504 264ZM120 136H136V72H376V173.6C381.152 171.768 386.488 170.376 392 169.448V48C392 34.768 381.232 24 368 24H144C130.768 24 120 34.768 120 48V136ZM312 264C312 228.56 331.352 197.624 360 180.992V88H152V136H158.216L163.92 158.416C166.472 159.368 169.032 160.432 171.568 161.616L191.488 149.776L234.224 192.512L222.384 212.424C223.56 214.96 224.632 217.52 225.584 220.072L248 225.784V286.224L225.584 291.928C224.632 294.48 223.568 297.04 222.384 299.576L234.224 319.496L191.488 362.232L171.568 350.392C169.032 351.568 166.48 352.64 163.92 353.592L158.216 376H152V392H360V347.008C331.352 330.376 312 299.44 312 264ZM101.2 339.816L105.424 341.168L110.216 360H145.776L150.568 341.168L154.792 339.816C159.272 338.384 163.792 336.488 168.256 334.184L172.2 332.152L188.96 342.12L214.104 316.976L204.136 300.216L206.168 296.272C208.472 291.808 210.368 287.28 211.8 282.808L213.152 278.584L232 273.784V238.224L213.168 233.432L211.816 229.208C210.384 224.736 208.488 220.208 206.184 215.736L204.152 211.792L214.12 195.032L188.976 169.888L172.216 179.856L168.272 177.824C163.808 175.52 159.28 173.624 154.808 172.192L150.584 170.84L145.784 152H110.224L105.432 170.832L101.208 172.184C96.728 173.616 92.208 175.512 87.744 177.816L83.8 179.848L67.04 169.88L41.896 195.024L51.864 211.784L49.832 215.728C47.528 220.2 45.632 224.728 44.2 229.2L42.848 233.424L24 238.216V273.776L42.832 278.568L44.184 282.792C45.616 287.272 47.512 291.792 49.816 296.256L51.848 300.2L41.88 316.96L67.024 342.104L83.784 332.136L87.728 334.168C92.2 336.488 96.728 338.384 101.2 339.816V339.816ZM392 358.552C386.488 357.624 381.152 356.224 376 354.4V408H136V376H120V464C120 477.232 130.768 488 144 488H368C381.232 488 392 477.232 392 464V358.552ZM408 344C428.96 344 448 335.832 462.28 322.6C456.2 297.688 434.008 280 408 280C381.992 280 359.8 297.688 353.72 322.6C368 335.832 387.04 344 408 344ZM408 264C421.232 264 432 253.232 432 240C432 226.768 421.232 216 408 216C394.768 216 384 226.768 384 240C384 253.232 394.768 264 408 264ZM488 264C488 219.888 452.112 184 408 184C363.888 184 328 219.888 328 264C328 280.456 333.008 295.768 341.56 308.496C348.944 290.496 363.224 276.456 380.96 269.288C373.048 261.976 368 251.6 368 240C368 217.944 385.944 200 408 200C430.056 200 448 217.944 448 240C448 251.6 442.952 261.976 435.04 269.288C452.776 276.456 467.056 290.496 474.44 308.496C482.992 295.768 488 280.456 488 264ZM353.888 152L248 204.944V99.056L353.888 152ZM264 179.056L318.112 152L264 124.944V179.056Z" fill="#EB5B78"/>
</svg>
