<svg width="496" height="496" viewBox="0 0 496 496" fill="none" xmlns="http://www.w3.org/2000/svg">
<path d="M456 112H448V106.215L473.551 63.6172L428.121 0H403.887L358.449 63.6172L384 106.215V112H304V110.48C304 73.4883 290.953 37.457 267.266 9.01562C262.488 3.28906 255.465 0 248 0C240.535 0 233.512 3.28906 228.727 9.02344C205.047 37.457 192 73.4883 192 110.48V112H112V53.1914L72 3.19141L32 53.1914V112.809C13.7695 116.527 0 132.688 0 152V408C0 430.055 17.9453 448 40 448H144V480H112V496H384V480H352V448H456C478.055 448 496 430.055 496 408V152C496 129.945 478.055 112 456 112ZM432 128H400V112H432V128ZM400 144H432V208C432 216.824 424.824 224 416 224C407.176 224 400 216.824 400 208V144ZM424 64C424 68.4062 420.414 72 416 72C411.586 72 408 68.4062 408 64C408 59.5938 411.586 56 416 56C420.414 56 424 59.5938 424 64ZM408 21.7617V41.4727C398.711 44.7852 392 53.5859 392 64C392 77.2305 402.77 88 416 88C429.23 88 440 77.2305 440 64C440 53.5859 433.289 44.7852 424 41.4727V21.7617L454.449 64.375L435.473 96H396.527L377.551 64.3828L408 21.7617ZM384 128V208C384 225.648 398.352 240 416 240C433.648 240 448 225.648 448 208V128H456C469.23 128 480 138.77 480 152V368H431.113C441.52 357.824 448 343.664 448 328C448 297.121 422.871 272 392 272C391.793 272 391.586 272.047 391.367 272.055C387.488 244.938 364.168 224 336 224C318.762 224 302.953 231.879 292.449 244.969C288.734 241.305 284.602 238.008 280 235.266V224H284.945L292.945 208H368V179.055L304 147.055V128H384ZM64 328C64 305.945 81.9453 288 104 288C126.055 288 144 305.945 144 328H160C160 305.816 147 286.656 128.238 277.602C129.512 256.68 146.77 240 168 240C179.023 240 189.457 244.609 196.953 252.48C188.68 263.602 184 277.258 184 291.777V296H200V291.777C200 272.762 210.566 255.656 227.574 247.152L232 244.945V224H264V244.945L268.426 247.152C285.434 255.656 296 272.754 296 291.777V296H312V291.777C312 279.559 308.633 267.984 302.656 257.984C310.031 246.816 322.406 240 336 240C358.055 240 376 257.945 376 280C376 302.055 358.055 320 336 320V336C364.137 336 387.426 315.121 391.352 288.055C391.566 288.047 391.785 288 392 288C414.055 288 432 305.945 432 328C432 350.055 414.055 368 392 368H104C81.9453 368 64 350.055 64 328ZM195.055 192H144V188.945L192 164.945V185.887L195.055 192ZM304 164.945L352 188.945V192H300.945L304 185.887V164.945ZM275.055 208H220.945L212.945 192H283.055L275.055 208ZM241.016 19.2734C244.488 15.1133 251.52 15.1211 254.977 19.2734C276.273 44.832 288 77.2227 288 110.48V176H208V110.48C208 77.2227 219.727 44.832 241.016 19.2734ZM48 208H96V232C96 236.406 92.4141 240 88 240H56C51.5859 240 48 236.406 48 232V208ZM96 192H80V176H64V192H48V64H64V160H80V64H96V192ZM87.3594 48H56.6406L72 28.8086L87.3594 48ZM32 129.473V232C32 245.23 42.7695 256 56 256H88C101.23 256 112 245.23 112 232V128H192V147.055L128 179.055V208H203.055L211.055 224H216V235.266C213.16 236.961 210.527 238.895 208.016 240.953C197.559 230.258 183.191 224 168 224C139.602 224 116.121 245.281 112.527 272.719C109.742 272.289 106.902 272 104 272C73.1289 272 48 297.121 48 328C48 343.664 54.4805 357.824 64.8867 368H16V152C16 141.586 22.7109 132.785 32 129.473ZM336 480H160V448H336V480ZM456 432H40C26.7695 432 16 421.23 16 408V384H480V408C480 421.23 469.23 432 456 432ZM192 400H208V416H192V400ZM224 400H272V416H224V400ZM288 400H304V416H288V400ZM272 80H224V160H272V80ZM256 144H240V96H256V144ZM256 64H240V48H256V64Z" fill="#9600FF"/>
</svg>
