<svg width="512" height="512" viewBox="0 0 512 512" fill="none" xmlns="http://www.w3.org/2000/svg">
<path d="M464 136H440V8H72V136H48C25.944 136 8 153.944 8 176V416C8 438.056 25.944 456 48 456H152V488H120V504H392V488H360V456H464C486.056 456 504 438.056 504 416V176C504 153.944 486.056 136 464 136ZM324.352 259.688L333.616 241.168L302.832 210.384L284.312 219.648L277.768 200H234.24L227.696 219.648L209.176 210.384L178.392 241.168L187.656 259.688L168 266.232V280H88V88H424V280H344V266.232L324.352 259.688ZM314.152 331.68L299.68 346.152L282.384 337.504L278.92 339.056C277.928 339.496 276.928 339.896 275.896 340.288L272.352 341.632L266.232 360H245.76L239.64 341.632L236.096 340.288C235.064 339.896 234.064 339.488 233.072 339.056L229.608 337.504L212.312 346.152L197.84 331.68L206.488 314.384L204.936 310.92C204.496 309.928 204.096 308.928 203.704 307.896L202.36 304.352L184 298.232V277.76L202.368 271.64L203.712 268.096C204.104 267.064 204.512 266.064 204.944 265.072L206.496 261.608L197.848 244.312L212.32 229.84L229.616 238.488L233.08 236.936C234.072 236.496 235.072 236.096 236.104 235.704L239.648 234.36L245.768 216H266.24L272.36 234.368L275.904 235.712C276.936 236.104 277.936 236.512 278.928 236.944L282.392 238.496L299.688 229.848L314.16 244.32L305.512 261.616L307.064 265.08C307.504 266.072 307.904 267.072 308.296 268.104L309.64 271.648L328 277.768V298.24L309.632 304.36L308.288 307.904C307.896 308.936 307.488 309.936 307.056 310.928L305.504 314.392L314.152 331.68ZM424 24V72H88V24H424ZM48 152H72V296H168V309.768L187.648 316.312L178.384 334.832L209.168 365.616L227.688 356.352L234.232 376H277.76L284.304 356.352L302.824 365.616L333.608 334.832L324.344 316.312L344 309.768V296H440V152H464C477.232 152 488 162.768 488 176V392H24V176C24 162.768 34.768 152 48 152ZM344 488H168V456H344V488ZM464 440H48C34.768 440 24 429.232 24 416V408H488V416C488 429.232 477.232 440 464 440ZM120 56H104V40H120V56ZM152 56H136V40H152V56ZM184 56H168V40H184V56ZM256 248C233.944 248 216 265.944 216 288C216 310.056 233.944 328 256 328C278.056 328 296 310.056 296 288C296 265.944 278.056 248 256 248ZM256 312C242.768 312 232 301.232 232 288C232 274.768 242.768 264 256 264C269.232 264 280 274.768 280 288C280 301.232 269.232 312 256 312ZM104 104H264V120H104V104ZM104 136H264V152H104V136ZM104 168H264V184H104V168Z" fill="#463EFF"/>
</svg>
