<?xml version="1.0" encoding="iso-8859-1"?>
<!-- Generator: Adobe Illustrator 19.0.0, SVG Export Plug-In . SVG Version: 6.00 Build 0)  -->
<svg version="1.1" id="Capa_1" xmlns="http://www.w3.org/2000/svg" xmlns:xlink="http://www.w3.org/1999/xlink" x="0px" y="0px"
	 viewBox="0 0 480 480" style="enable-background:new 0 0 480 480;" xml:space="preserve">
<linearGradient id="SVGID_1_" gradientUnits="userSpaceOnUse" x1="-16.375" y1="618.542" x2="-16.375" y2="554.145" gradientTransform="matrix(8 0 0 -8 455 4941)">
	<stop  offset="0" style="stop-color:#FC5C7D"/>
	<stop  offset="0.129" style="stop-color:#F35E85"/>
	<stop  offset="0.343" style="stop-color:#D9659B"/>
	<stop  offset="0.616" style="stop-color:#B070BF"/>
	<stop  offset="0.934" style="stop-color:#777FF0"/>
	<stop  offset="1" style="stop-color:#6A82FB"/>
</linearGradient>
<path style="fill:url(#SVGID_1_);" d="M216,72h216v16H216V72z"/>
<g>
	
		<linearGradient id="SVGID_2_" gradientUnits="userSpaceOnUse" x1="-21.375" y1="618.542" x2="-21.375" y2="554.145" gradientTransform="matrix(8 0 0 -8 455 4941)">
		<stop  offset="0" style="stop-color:#FC5C7D"/>
		<stop  offset="0.129" style="stop-color:#F35E85"/>
		<stop  offset="0.343" style="stop-color:#D9659B"/>
		<stop  offset="0.616" style="stop-color:#B070BF"/>
		<stop  offset="0.934" style="stop-color:#777FF0"/>
		<stop  offset="1" style="stop-color:#6A82FB"/>
	</linearGradient>
	<path style="fill:url(#SVGID_2_);" d="M216,104h136v16H216V104z"/>
	
		<linearGradient id="SVGID_3_" gradientUnits="userSpaceOnUse" x1="-21.375" y1="618.542" x2="-21.375" y2="554.145" gradientTransform="matrix(8 0 0 -8 455 4941)">
		<stop  offset="0" style="stop-color:#FC5C7D"/>
		<stop  offset="0.129" style="stop-color:#F35E85"/>
		<stop  offset="0.343" style="stop-color:#D9659B"/>
		<stop  offset="0.616" style="stop-color:#B070BF"/>
		<stop  offset="0.934" style="stop-color:#777FF0"/>
		<stop  offset="1" style="stop-color:#6A82FB"/>
	</linearGradient>
	<path style="fill:url(#SVGID_3_);" d="M216,136h136v16H216V136z"/>
	
		<linearGradient id="SVGID_4_" gradientUnits="userSpaceOnUse" x1="-12.375" y1="618.542" x2="-12.375" y2="554.145" gradientTransform="matrix(8 0 0 -8 455 4941)">
		<stop  offset="0" style="stop-color:#FC5C7D"/>
		<stop  offset="0.129" style="stop-color:#F35E85"/>
		<stop  offset="0.343" style="stop-color:#D9659B"/>
		<stop  offset="0.616" style="stop-color:#B070BF"/>
		<stop  offset="0.934" style="stop-color:#777FF0"/>
		<stop  offset="1" style="stop-color:#6A82FB"/>
	</linearGradient>
	<path style="fill:url(#SVGID_4_);" d="M280,40h152v16H280V40z"/>
	
		<linearGradient id="SVGID_5_" gradientUnits="userSpaceOnUse" x1="-24.875" y1="618.542" x2="-24.875" y2="554.145" gradientTransform="matrix(8 0 0 -8 455 4941)">
		<stop  offset="0" style="stop-color:#FC5C7D"/>
		<stop  offset="0.129" style="stop-color:#F35E85"/>
		<stop  offset="0.343" style="stop-color:#D9659B"/>
		<stop  offset="0.616" style="stop-color:#B070BF"/>
		<stop  offset="0.934" style="stop-color:#777FF0"/>
		<stop  offset="1" style="stop-color:#6A82FB"/>
	</linearGradient>
	<path style="fill:url(#SVGID_5_);" d="M248,40h16v16h-16V40z"/>
	
		<linearGradient id="SVGID_6_" gradientUnits="userSpaceOnUse" x1="-26.875" y1="618.542" x2="-26.875" y2="554.145" gradientTransform="matrix(8 0 0 -8 455 4941)">
		<stop  offset="0" style="stop-color:#FC5C7D"/>
		<stop  offset="0.129" style="stop-color:#F35E85"/>
		<stop  offset="0.343" style="stop-color:#D9659B"/>
		<stop  offset="0.616" style="stop-color:#B070BF"/>
		<stop  offset="0.934" style="stop-color:#777FF0"/>
		<stop  offset="1" style="stop-color:#6A82FB"/>
	</linearGradient>
	<path style="fill:url(#SVGID_6_);" d="M232,320h16v16h-16V320z"/>
	
		<linearGradient id="SVGID_7_" gradientUnits="userSpaceOnUse" x1="-42.0214" y1="618.542" x2="-42.0214" y2="554.145" gradientTransform="matrix(8 0 0 -8 455 4941)">
		<stop  offset="0" style="stop-color:#FC5C7D"/>
		<stop  offset="0.129" style="stop-color:#F35E85"/>
		<stop  offset="0.343" style="stop-color:#D9659B"/>
		<stop  offset="0.616" style="stop-color:#B070BF"/>
		<stop  offset="0.934" style="stop-color:#777FF0"/>
		<stop  offset="1" style="stop-color:#6A82FB"/>
	</linearGradient>
	<path style="fill:url(#SVGID_7_);" d="M122.344,85.656l11.312-11.312L123.312,64l10.344-10.344l-11.312-11.312l-16,16
		c-3.123,3.124-3.123,8.188,0,11.312L122.344,85.656z"/>
	
		<linearGradient id="SVGID_8_" gradientUnits="userSpaceOnUse" x1="-33.7286" y1="618.542" x2="-33.7286" y2="554.145" gradientTransform="matrix(8 0 0 -8 455 4941)">
		<stop  offset="0" style="stop-color:#FC5C7D"/>
		<stop  offset="0.129" style="stop-color:#F35E85"/>
		<stop  offset="0.343" style="stop-color:#D9659B"/>
		<stop  offset="0.616" style="stop-color:#B070BF"/>
		<stop  offset="0.934" style="stop-color:#777FF0"/>
		<stop  offset="1" style="stop-color:#6A82FB"/>
	</linearGradient>
	<path style="fill:url(#SVGID_8_);" d="M181.656,85.656l16-16c3.123-3.124,3.123-8.188,0-11.312l-16-16l-11.312,11.312L180.688,64
		l-10.344,10.344L181.656,85.656z"/>
</g>
<linearGradient id="SVGID_9_" gradientUnits="userSpaceOnUse" x1="-50.0839" y1="618.5132" x2="-111.1739" y2="598.1282" gradientTransform="matrix(2.5322 -7.5886 -7.5886 -2.5322 4972.4956 1178.8152)">
	<stop  offset="0" style="stop-color:#FC5C7D"/>
	<stop  offset="0.129" style="stop-color:#F35E85"/>
	<stop  offset="0.343" style="stop-color:#D9659B"/>
	<stop  offset="0.616" style="stop-color:#B070BF"/>
	<stop  offset="0.934" style="stop-color:#777FF0"/>
	<stop  offset="1" style="stop-color:#6A82FB"/>
</linearGradient>
<path style="fill:url(#SVGID_9_);" d="M136.404,85.464l16.016-47.998l15.17,5.062l-16.016,47.998L136.404,85.464z"/>
<g>
	
		<linearGradient id="SVGID_10_" gradientUnits="userSpaceOnUse" x1="-13.875" y1="618.542" x2="-13.875" y2="554.145" gradientTransform="matrix(8 0 0 -8 455 4941)">
		<stop  offset="0" style="stop-color:#FC5C7D"/>
		<stop  offset="0.129" style="stop-color:#F35E85"/>
		<stop  offset="0.343" style="stop-color:#D9659B"/>
		<stop  offset="0.616" style="stop-color:#B070BF"/>
		<stop  offset="0.934" style="stop-color:#777FF0"/>
		<stop  offset="1" style="stop-color:#6A82FB"/>
	</linearGradient>
	<path style="fill:url(#SVGID_10_);" d="M416,184h-16v64h-16v-80h-16v80h-16v-40h-16v40h-16v-48h-16v48h-16v-32h-16v32h-16v16h176
		v-16h-16V184z"/>
	
		<linearGradient id="SVGID_11_" gradientUnits="userSpaceOnUse" x1="-26.875" y1="618.542" x2="-26.875" y2="554.145" gradientTransform="matrix(8 0 0 -8 455 4941)">
		<stop  offset="0" style="stop-color:#FC5C7D"/>
		<stop  offset="0.129" style="stop-color:#F35E85"/>
		<stop  offset="0.343" style="stop-color:#D9659B"/>
		<stop  offset="0.616" style="stop-color:#B070BF"/>
		<stop  offset="0.934" style="stop-color:#777FF0"/>
		<stop  offset="1" style="stop-color:#6A82FB"/>
	</linearGradient>
	<path style="fill:url(#SVGID_11_);" d="M8,296v24c0.026,26.499,21.501,47.974,48,48h99.056l-32,64H80c-13.255,0-24,10.745-24,24
		s10.745,24,24,24h320c13.255,0,24-10.745,24-24s-10.745-24-24-24h-43.056l-32-64H424c26.499-0.026,47.974-21.501,48-48V48
		c-0.026-26.499-21.501-47.974-48-48H56C29.501,0.026,8.026,21.501,8,48v157.008v0.072V296z M169.6,207.336l7.576,23.288
		c0.729,2.246,2.412,4.056,4.6,4.944L208,246.2v18.88l-26.24,10.632c-2.193,0.884-3.879,2.699-4.6,4.952l-2.4,7.336h-46.088
		c17.928-37.536,2.032-82.499-35.504-100.427c-22.047-10.53-47.833-9.712-69.168,2.195V112.56l18.184,21.648
		c1.52,1.811,3.764,2.856,6.128,2.856H72.8c2.364,0,4.608-1.045,6.128-2.856L97.12,112.56l17.952,5.832l1.984,28.184
		c0.164,2.357,1.362,4.521,3.272,5.912l19.816,14.4c1.917,1.384,4.345,1.855,6.64,1.288l27.464-6.824l11.104,15.272l-14.968,24
		C169.144,202.636,168.857,205.093,169.6,207.336L169.6,207.336z M24,288v-79.2c25.876-20.187,63.218-15.575,83.404,10.302
		C122.99,239.08,124.193,266.744,110.4,288H24z M408,456c0,4.418-3.582,8-8,8H80c-4.418,0-8-3.582-8-8s3.582-8,8-8h320
		C404.418,448,408,451.582,408,456z M339.056,432H140.944l32-64h134.112L339.056,432z M424,352H56c-17.673,0-32-14.327-32-32v-16
		h90.576h0.072H456v16C456,337.673,441.673,352,424,352z M56,16h368c17.673,0,32,14.327,32,32v240H194.04l24.968-10.12
		c3.016-1.224,4.99-4.153,4.992-7.408V240.8c0.001-3.258-1.973-6.191-4.992-7.416L191.2,222.136l-5.264-16.2l15.856-25.44
		c1.72-2.764,1.593-6.294-0.32-8.928l-17.44-24c-1.915-2.637-5.237-3.849-8.4-3.064l-29.088,7.2L132.8,141.72l-2.104-29.84
		c-0.229-3.253-2.41-6.042-5.512-7.048l-28.2-9.168c-3.103-0.988-6.495-0.013-8.6,2.472l-19.256,22.92H52.064L32.8,98.136
		c-2.106-2.488-5.503-3.464-8.608-2.472L24,95.736V48C24,30.327,38.327,16,56,16L56,16z"/>
</g>
<g>
</g>
<g>
</g>
<g>
</g>
<g>
</g>
<g>
</g>
<g>
</g>
<g>
</g>
<g>
</g>
<g>
</g>
<g>
</g>
<g>
</g>
<g>
</g>
<g>
</g>
<g>
</g>
<g>
</g>
</svg>
