<svg width="160" height="198" viewBox="0 0 160 198" fill="none" xmlns="http://www.w3.org/2000/svg">
<path d="M0 61.851V123.224L36.5373 159.761C56.597 179.582 73.791 196.06 74.7463 196.06C75.7015 196.06 76.1791 152.358 75.9403 98.627L75.2239 1.43328L59.2239 0.716864L42.9851 0.000448376V75.7017V151.403L37.0149 145.91L31.0448 140.418V70.2092V0.239254H15.5224H0V61.851Z" fill="white"/>
<path d="M83.582 98.6273V197.254L121.791 159.045L160 120.836L159.522 61.1349L158.806 1.43358L142.806 0.717162L126.567 0.000745684V70.2095V140.418L120.597 145.911L114.627 151.403V75.9408V0.239551H99.1044H83.582V98.6273Z" fill="white"/>
</svg>
